<svg xmlns="http://www.w3.org/2000/svg" width="63" height="42" fill="none"><path fill="#fff" stroke="#fff" stroke-width=".5" d="M19.497 21.682c.069.568.57.854.917 1.021l.054.03c.18.095.31.165.445.294.05.049.09.093.136.145.035.039.073.082.122.133.1.105.223.22.381.303.344.18.677.088.937-.077l.005.006.008.008a.785.785 0 0 1 .107.14l.019.03c.032.05.073.114.119.17.198.27.486.436.826.463H23.631l.014-.002.018.075c.037.159.068.292.085.44v.002c.02.17.026.337.03.51v.1c.002.139.004.283.013.425.002.318.116.63.408.857.105.086.227.146.336.193.053.023.106.044.156.064l.01.005c.054.021.104.041.151.062.202.09.27.159.287.243l.002.008.025.109c.05.225.104.475.319.728v.002c.072.081.154.166.227.243l.118.124c.102.111.186.217.25.34l.002.003c.238.444.378.938.522 1.44.05.174.099.349.153.523l.002.007.006.015-.003-.001-.007-.003c-.17-.07-.339-.127-.565-.127-.13 0-.23.037-.312.078-.033.017-.065.036-.09.05l-.01.006-.025.014-.01-.009a.635.635 0 0 0-.13-.088.669.669 0 0 0-.558-.037c-.05.017-.097.04-.133.058l-.05.025-.055.028c-.05.024-.07.027-.072.028h-.003c-.012-.001-.017-.004-.018-.005a.008.008 0 0 1-.003-.003c-.002-.003-.011-.02-.007-.057v-.003a.424.424 0 0 0-.069-.291.46.46 0 0 0-.2-.162.553.553 0 0 0-.44.002 2.294 2.294 0 0 0-.15.072l-.063-.036-.01.076a1.915 1.915 0 0 0-.87 1.02c-.106.26-.13.536-.105.8.007.087.024.17.038.237v.001c.015.073.025.126.03.175.006.081-.006.115-.05.154-.058.05-.118.092-.186.14l-.074.055a1.92 1.92 0 0 0-.298.258l-.008.008c-.21.254-.312.53-.401.79l-.003.008-.06.21c-.054.192-.11.394-.202.567a.562.562 0 0 1-.18.22c-.048.03-.113.049-.22.022l-.003-.001a.516.516 0 0 0-.644.497.9.9 0 0 0 .027.258l-.097.075.146.058a.79.79 0 0 0 .093.15c.109.14.254.232.39.301.1.052.213.098.313.139l.09.037c.126.053.224.1.298.155.258.21.545.327.85.33.304.004.6-.105.877-.299.12-.08.229-.172.326-.256l.04-.034c.086-.075.163-.142.243-.201.178-.132.34-.202.543-.18l.005.001c.388.036.736.32.782.65l.001.004a.468.468 0 0 0 .817.237.433.433 0 0 0 .078-.367c-.164-.997-1.28-1.654-2.26-1.38-.325.091-.57.298-.768.465l-.006.005c-.213.18-.374.314-.572.372l-.006.002c-.081.026-.129.014-.199-.03a1.614 1.614 0 0 1-.131-.093l-.018-.014a1.914 1.914 0 0 0-.239-.161c.154-.136.281-.3.369-.467.121-.218.197-.475.264-.698.02-.072.04-.14.061-.201.091-.28.195-.493.388-.639l.07-.05c.17-.125.388-.284.515-.528.19-.343.105-.676.043-.917l-.019-.075a.928.928 0 0 1 .163-.735 1.092 1.092 0 0 0 1.167.22v.001l.012-.005c.021-.01.041-.022.057-.031l.037.033a.44.44 0 0 0 .08.057c.125.07.334.157.547.086a.656.656 0 0 0 .215-.1l.018-.012c.042-.028.058-.039.08-.047l.014-.006.013-.007c.015-.008.03-.015.087.006.032.012.067.03.116.054l.017.009c.041.021.093.047.146.07l.008.003c.265.103.642.143.954-.038l.002-.001a.684.684 0 0 0 .343-.538c.019-.19-.027-.38-.075-.529-.043-.14-.085-.285-.128-.432-.178-.604-.368-1.251-.646-1.825a2.761 2.761 0 0 0-.581-.797l-.085-.093-.002-.001-.08-.086a.515.515 0 0 1-.093-.144c-.02-.06-.03-.119-.041-.202a1.086 1.086 0 0 0-.106-.388l-.006-.01a1.295 1.295 0 0 0-.6-.532 2.434 2.434 0 0 0-.278-.115 3.911 3.911 0 0 1-.081-.03.566.566 0 0 1-.214-.121l-.006-.006-.006-.006a.054.054 0 0 1-.013-.018.102.102 0 0 1-.006-.031.73.73 0 0 1 .001-.086l.001-.02c.002-.033.005-.075.005-.118V25.105l-.001-.008c-.023-.373-.069-.806-.19-1.201v-.005a.815.815 0 0 0-.381-.487 1.131 1.131 0 0 0-.552-.117c-.059 0-.1-.021-.167-.105-.03-.038-.057-.079-.091-.13a1.661 1.661 0 0 0-.182-.244c-.257-.294-.726-.556-1.204-.321a.456.456 0 0 0-.113.066 1.757 1.757 0 0 0-.415-.298 3.485 3.485 0 0 0-.445-.177l-.11-.037a6.39 6.39 0 0 1-.312-.11c-.266-.104-.458-.223-.572-.419l-.024-.042-.04-.03a.482.482 0 0 0-.32-.108.314.314 0 0 0-.21.096.284.284 0 0 0-.07.253Zm7.507 9.277h-.002.002Z"/><path fill="#fff" stroke="#fff" stroke-width=".5" d="m32.278 30.185.02-.25a4.66 4.66 0 0 0-2.364.433c-.297.138-.64.35-.88.635a1.305 1.305 0 0 0-.259.464l-.199-.017.167.16c-.024.162-.01.335.057.517l.004.01a.518.518 0 0 0 .169.223.575.575 0 0 0 .238.099l.016.003.017.001c.24.014.394.211.371.387v.004a.317.317 0 0 1-.151.242.884.884 0 0 1-.372.121h-.002c-.122.017-.249.023-.389.03l-.07.004c-.162.008-.339.019-.514.055a1.714 1.714 0 0 0-.467.15l-.012.006c-.037.02-.08.048-.114.07l-.027.018a.725.725 0 0 1-.088.05.499.499 0 0 0-.834.095l-.007.013-.005.013a.582.582 0 0 1-.005.012h-.238l.15.218a7.92 7.92 0 0 1-.174.383 19.06 19.06 0 0 1-.1-.102l-.02-.174-.1.049-.001-.002a.502.502 0 0 0-.521-.097.453.453 0 0 0-.305.473v.003l-.116.056.133.128c.073.745.2 1.47.345 2.189.044.242.273.303.411.285.15-.021.33-.145.33-.375 0-.395-.01-.79-.034-1.186a.538.538 0 0 0 .126.006.453.453 0 0 0 .373-.237l.003-.005.093-.18.154-.03-.09-.095c.084-.164.168-.33.247-.496.05.008.101.013.154.013.212 0 .376-.08.5-.153.042-.023.077-.045.108-.064.073-.044.125-.076.19-.099.198-.066.405-.072.658-.079l.063-.002c.268-.008.583-.024.892-.166l.008-.004c.519-.263.822-.84.739-1.403l-.002-.008c-.082-.456-.397-.783-.782-.949a.796.796 0 0 1 .183-.184c.206-.16.489-.284.684-.357a4.03 4.03 0 0 1 1.62-.223c.14.01.27-.035.363-.131a.478.478 0 0 0-.325-.799l-.019.249Zm0 0c.29.021.29.453 0 .431a4.28 4.28 0 0 0-1.723.238l-1.504.635c.145-.401.595-.712.989-.894a4.408 4.408 0 0 1 2.238-.41Z"/><path fill="#fff" stroke="#fff" stroke-width=".5" d="M31.902 30.68a.388.388 0 0 0 .238.12.854.854 0 0 0 .048.226l-.143.137.229.03a.989.989 0 0 0 .388.317l.016.008.016.005c.015.005.066.023.126.047a.462.462 0 0 0-.083.353.49.49 0 0 0 .264.356l.012.084.127-.038a.565.565 0 0 0 .053.008c.334.038.647.172.983.339l.203.103c.27.139.562.287.865.388h.002c.48.155.962.153 1.406.142l.106-.003c.414-.01.795-.02 1.175.062.15.032.307.076.441.129l-.023.015c-.129.063-.26.138-.377.204l-.131.074-.01.005c-.685.419-1.35.927-1.925 1.503l-.08.076c-.091.085-.2.188-.295.295a1.386 1.386 0 0 0-.317.539l-.001.004a.81.81 0 0 0 .051.556c.089.18.255.323.49.358h.002c.22.03.43-.031.596-.085l.105-.035c.133-.045.24-.08.35-.095h.002c.127-.018.21.01.24.04a.96.96 0 0 1 .114.145l.004.007c.042.06.1.143.173.215l.01.01.011.008c.123.095.29.203.511.203.078 0 .15-.011.203-.02l.008-.001c.05-.008.077-.013.1-.014l.005.01.005.009c.076.13.12.3.141.498.02.196.016.401.005.59-.009.139-.028.28-.05.433l-.013.098a4.228 4.228 0 0 0-.047.587c.003.411.116.835.541 1.167.72.564 1.693.39 2.347-.03.33-.206.602-.476.85-.722.06-.059.117-.117.175-.172l.006-.006c.186-.192.37-.36.558-.53.128-.117.257-.235.392-.364.18-.153.158-.383.074-.52a.42.42 0 0 0-.5-.184c-.423.137-.746.4-1.025.674-.111.11-.22.226-.324.337l-.076.08c-.129.138-.254.267-.384.383a2.047 2.047 0 0 1-.826.44c-.294.068-.541.02-.718-.195l-.001-.001c-.082-.099-.116-.23-.116-.41 0-.134.018-.266.037-.409l.022-.173c.07-.402.094-.796.022-1.218-.043-.313-.116-.78-.424-1.105l-.008-.007a.94.94 0 0 0-.492-.24l-.013-.002a.87.87 0 0 0-.21.007l-.07.01-.01.002a1.671 1.671 0 0 1-.061.008.213.213 0 0 1-.057.002c-.033-.041-.064-.084-.099-.132l-.002-.002a3.254 3.254 0 0 0-.13-.173l-.01-.01-.01-.01a1.231 1.231 0 0 0-.532-.277l-.008-.002-.008-.002a1.67 1.67 0 0 0-.502-.022c.192-.191.392-.38.592-.557.585-.48 1.239-.88 1.943-1.24l.003-.002c.13-.069.313-.182.429-.34a.568.568 0 0 0 .116-.32.555.555 0 0 0-.13-.364c-.14-.18-.362-.303-.563-.388a4.283 4.283 0 0 0-.597-.194 5.255 5.255 0 0 0-1.453-.203c-.13 0-.258.005-.381.011l-.024.001c-.116.006-.227.01-.337.012a2.145 2.145 0 0 1-.662-.078l-.005-.001c-.32-.092-.61-.239-.922-.396a31.756 31.756 0 0 0-.194-.098 5.975 5.975 0 0 0-.53-.238.774.774 0 0 0 .002-.102c.205.027.41.05.61.071h.001c.257.025.555-.013.774-.17a.647.647 0 0 0 .252-.35.79.79 0 0 0-.027-.48c-.21-.605-.868-.815-1.378-.815-.523 0-1.052.076-1.56.15-.165.024-.327.047-.486.068l-.047.006-.042.023c-.195.107-.25.332-.237.486a.45.45 0 0 0 .116.272Zm2.755.142-.001-.002a.02.02 0 0 1 0 .002Z"/><path fill="#fff" stroke="#fff" stroke-width=".5" d="m43.056 39.173-.02.012a.385.385 0 0 1-.47-.064c-.132-.135-.139-.328-.062-.495l.01-.02.011-.017c.24-.346.568-.432.86-.463.081-.008.176-.013.264-.018a7.31 7.31 0 0 0 .143-.009c.126-.01.235-.025.334-.057.2-.073.356-.233.553-.456l.04-.046c.175-.2.388-.442.675-.586l.003-.002a1.762 1.762 0 0 1-.392-.21 3.39 3.39 0 0 1-.653-.635 5.877 5.877 0 0 1-.957-1.641 4.099 4.099 0 0 1-.285-1.051l-.014-.086c-.042-.25-.098-.587-.027-.89.085-.402.389-.592.62-.737l.07-.044.008-.005a19 19 0 0 0 .431-.266h.002c.143-.091.29-.184.436-.271.303-.194.605-.383.905-.57l.001-.001c.302-.189.602-.376.902-.57.048-.031.098-.066.15-.102.23-.16.496-.344.806-.444l.01-.003.017-.005c.14-.039.334-.092.536-.069.11.002.21.022.286.037.088.018.141.028.19.028.087 0 .184-.033.32-.096.026-.011.054-.025.083-.04.11-.052.244-.116.376-.156l.01-.003.01-.002c.334-.069.575-.012.816.044l.087.02c.038.005.074-.005.129-.05.05-.041.088-.086.139-.145a5.08 5.08 0 0 1 .083-.094l.006-.006.006-.006.012-.012c.148-.143.334-.322.577-.426l.009-.004.009-.003a2.35 2.35 0 0 1 .472-.096l.057-.007a1.32 1.32 0 0 0 .402-.1c.11-.058.218-.127.335-.203l.004-.002c.115-.074.24-.155.373-.224l.001-.001c.33-.17.666-.247 1.028-.222h.005a3.888 3.888 0 0 1 .221.028c.076.009.148.016.217.017.147.003.223-.025.262-.062.009-.009.025-.03.035-.1.005-.034.008-.072.012-.119v-.013c.003-.041.007-.09.013-.138v-.004l.067-.453.001-.008.002-.007c.069-.333.163-.675.307-.999M43.056 39.173l12.098-13.347M43.056 39.173l.018-.016c.05-.043.111-.063.211-.063.052 0 .108.005.175.013l.047.006c.053.007.11.014.167.018.275.022.596.028.9-.105m-1.518.147 1.519-.147m10.35-13.3v-.002l.229.102m-.23-.1.23.1m-.23-.1c.123-.283.311-.584.658-.751l.01-.006.012-.004c.081-.03.16-.053.23-.074l.023-.007c.062-.018.116-.034.168-.052a.709.709 0 0 0 .276-.158l.01-.01v.001c.06-.052.112-.1.168-.151.047-.043.096-.089.155-.141.115-.102.245-.209.388-.293.144-.084.309-.15.495-.164.19-.013.383.03.578.137l.008.005a.415.415 0 0 1 .192.25.412.412 0 0 1-.028.282.45.45 0 0 1-.457.254l-.01-.001c-.104-.017-.208.019-.336.118a2.312 2.312 0 0 0-.25.234l-.14.142-.009.007c-.304.27-.587.39-.94.504-.118.038-.197.119-.261.246a2.17 2.17 0 0 0-.14.43l-.015.055-.002.006a4.85 4.85 0 0 0-.144.846l-.027.238v.008h-.001c-.07.45-.33.718-.665.854-.314.127-.685.134-1.007.112m1.29-2.817c.113-.26.27-.497.538-.626.08-.03.16-.053.237-.076.2-.06.385-.114.546-.27.06-.05.12-.106.18-.161.374-.344.78-.718 1.32-.421.179.108.045.345-.134.324-.34-.055-.6.213-.822.441-.04.042-.08.083-.118.12-.27.237-.515.345-.851.453-.381.122-.482.516-.568.85l-.014.056c-.089.31-.121.605-.154.897l-.025.225c-.112.713-.783.799-1.41.756m-.015.25h.002l.013-.25m-.015.25a1.307 1.307 0 0 0-.435.039 1.762 1.762 0 0 0-.405.183m.84-.223h-.002l.017-.25m0 0c-.403-.02-.65.066-.985.26m-6.939 8.136c-.604.043-1.074-.432-1.41-.842-.403-.475-.694-1.014-.918-1.575a3.848 3.848 0 0 1-.268-.993l-.015-.092c-.043-.257-.09-.542-.03-.793.061-.296.272-.43.513-.582l.069-.044c.145-.086.291-.178.436-.27.146-.091.291-.183.437-.27.302-.194.604-.382.907-.571.302-.189.604-.378.906-.572l.167-.114c.23-.16.458-.317.728-.404.157-.043.314-.086.47-.065.093 0 .18.018.263.034.078.016.154.031.23.031.18 0 .35-.082.524-.166.107-.051.215-.103.326-.136.277-.057.466-.013.707.042l.1.023c.231.037.38-.135.517-.294l.064-.073c.157-.151.313-.302.515-.389.137-.047.279-.065.421-.084.182-.023.365-.047.541-.131.123-.065.241-.14.358-.216.118-.076.236-.151.359-.216.29-.151.582-.216.895-.194.043.003.091.01.143.017.245.032.567.074.752-.104.104-.1.114-.252.124-.395a2.06 2.06 0 0 1 .01-.123l-8.84 9.56Zm0 0c.291-.022.515-.173.694-.367m-.694.367.694-.367m0 0 .028-.037c.068-.091.168-.225.285-.244.101-.016.139.065.18.151.013.03.027.06.044.087m-.537.043.537-.043m0 0c.112.172.314.302.537.215.083-.031.154-.087.22-.14l.072-.054m-.829-.021.828.021m0 0c.135-.13.27-.216.426-.28m-.425.28.674-.34m-.25.06a1.97 1.97 0 0 1 .25-.06m-.25.06.077.238.01-.003m-.086-.235.095.23-.01.005m.164-.296c-.065.09-.113.19-.148.291m.148-.29-.148.29m-.015.005.015-.005m-.015.005c-.123.052-.229.12-.338.225l-.013.013-.014.01a1.826 1.826 0 0 0-.06.045l-.004.003a3.074 3.074 0 0 1-.071.056.913.913 0 0 1-.212.12c-.38.147-.692-.088-.838-.312l-.002-.004a.803.803 0 0 1-.033-.059m1.6-.102-1.654-.007v.001m1.654.006c.094-.028.19-.045.3-.063l.002-.004-.302.067Zm-1.6.102a.763.763 0 0 1 .022-.024.278.278 0 0 1 .05-.043l-.01.003a.113.113 0 0 1-.036 0 .142.142 0 0 1-.048-.018.11.11 0 0 1-.031-.026m.053.108c-.02.024-.037.047-.056.073a3.473 3.473 0 0 1-.038.05l-.007.009-.007.007c-.083.09-.177.175-.284.246m.392-.385a1.564 1.564 0 0 1-.024-.05l-.001-.003a.551.551 0 0 0-.028-.054m0 0-.34.492m0 0a1.211 1.211 0 0 0-.08-.014l.08.014Zm0 0a1.368 1.368 0 0 1-.086.053l-.037.18m.124-.233c.163.035.314.1.432.158l.014.007.013.008c.083.053.157.118.215.169l.005.004c.06.053.107.093.153.124m0 0-.002-.001-.126.216m.127-.215.009.005-.136.21m.127-.215.836.064c-.224.087-.739.28-.963.151m0 0c-.067-.043-.128-.097-.19-.15a1.65 1.65 0 0 0-.19-.152 1.556 1.556 0 0 0-.448-.15m0 0a1.493 1.493 0 0 0-.917.107m.917-.108.024-.171-.941.28m0 0c-.242.12-.425.328-.606.534-.205.232-.408.463-.693.566-.18.06-.372.07-.56.08l1.859-1.18Zm-.932 1.848c.281-.117.493-.308.674-.487l.135-.137c.13-.132.244-.25.38-.352.186-.124.38-.176.557-.133l.008.001c.089.019.164.07.278.168l.032.027c.1.085.238.204.415.27l.004.001c.175.062.354.058.504.04.097-.012.205-.034.295-.051l.11-.022.008-.001.008-.002c.283-.068.561-.163.82-.338l.006-.004c.18-.13.406-.313.526-.568.077-.152.1-.313.114-.424a3.27 3.27 0 0 1 .007-.046c.018-.123.038-.192.091-.255l.007-.008a2.72 2.72 0 0 1 .04-.05c.052-.065.121-.15.17-.237a.679.679 0 0 0 .084-.474.645.645 0 0 0-.303-.43 1.007 1.007 0 0 0-.425-.139 1.848 1.848 0 0 0-.895.076 2.56 2.56 0 0 0-.42.176 1.486 1.486 0 0 0-.169.106.682.682 0 0 0-.117-.112c-.295-.247-.72-.233-1.014-.065-.163.087-.276.236-.35.334l-.022.03c-.09.117-.137.161-.188.177l-.01.004c-.045.016-.119.013-.235-.053a1.334 1.334 0 0 1-.3-.249l-.006-.006a4.457 4.457 0 0 1-.975-1.511v-.003a5.702 5.702 0 0 1-.266-.96 3.258 3.258 0 0 1-.057-.335.836.836 0 0 1 0-.207c.007-.045.017-.06.018-.06.088-.085.21-.164.358-.249l.135-.075a5.89 5.89 0 0 0 .317-.184c.158-.098.31-.195.46-.292.151-.097.3-.193.455-.289l-.13-.213m-1.134 7.61 3.387-8.57c.05.004.097.01.153.017l.065.008c.083.01.177.02.281.02.291 0 .562-.123.771-.218l.086-.038m-3.61 1.171c.231-.14.456-.29.68-.44.362-.241.724-.482 1.11-.682m-1.79 1.122c-.157.097-.308.194-.459.291-.15.098-.302.195-.459.292l.918-.583Zm1.79-1.122.11.225.002-.001.003-.002-.114-.222Zm0 0c.247-.119.44-.095.654-.068.096.012.197.025.31.025.232 0 .448-.097.661-.194l.1-.044m0 0 .09.234.005-.002m-.096-.232.056-.022c.1-.04.212-.086.325-.086.1 0 .198.026.292.051.054.014.106.028.155.036.247.043.47-.043.672-.194.09-.065.162-.146.235-.227.073-.081.145-.162.235-.227.166-.145.363-.173.57-.202.099-.014.2-.029.303-.057.282-.077.51-.225.748-.38l.08-.051m-3.67 1.36.1.228-.005.003m0 0 3.705-1.378m0 0-.005.003-.125-.216m.13.213c.002 0 .003-.002.005-.003l-.135-.21m-4.038 7.38c.062 0 .125.002.188.022a.594.594 0 0 0-.135.127.25.25 0 0 1-.053-.149Zm-1.246.086-.026.026-.017-.036-.009-.017.051.027Zm-.071-.075a1.81 1.81 0 0 0-.03-.056.257.257 0 0 1 .19-.014l.022.009h.002a.58.58 0 0 0-.108.13l-.005.005-.06-.063-.002-.002-.01-.009Zm.767-.356a1.93 1.93 0 0 0-.536.258l-2.573 2.29c.134-.136.268-.274.422-.39.224-.15.493-.237.761-.172.172.035.296.14.42.248.105.088.21.177.342.226.203.072.437.025.652-.018l.131-.025a2.21 2.21 0 0 0 .739-.302c.179-.13.358-.28.447-.475a1.02 1.02 0 0 0 .09-.343c.022-.15.042-.3.156-.434l.053-.065c.119-.147.233-.289.194-.496-.045-.237-.291-.345-.515-.367a1.598 1.598 0 0 0-.784.065Zm-.852.217a.434.434 0 0 0-.089-.087l.09.087Zm-2.237.064a4.708 4.708 0 0 1-1.03-1.597l1.03 1.597Z"/><path fill="#fff" stroke="#fff" stroke-width=".5" d="M60.858 20.119c.186-.012.42-.04.622-.137a.862.862 0 0 0 .259-.183l.134.032-.063-.12a.77.77 0 0 0 .126-.318.547.547 0 0 0-.042-.332.427.427 0 0 0-.314-.236c-.093-.02-.183-.039-.271-.06l-.07-.133c.097-.05.192-.11.279-.192.28-.225.486-.524.59-.873.07-.231.06-.438.036-.623a5.557 5.557 0 0 0-.032-.206 2.532 2.532 0 0 1-.039-.294.456.456 0 0 1 .026-.163c.014-.046.028-.083.045-.127l.039-.105c.06-.173.13-.428-.035-.693l-.004-.005c-.239-.363-.687-.402-1-.295a1.17 1.17 0 0 0-.253.114l-.007.004a.724.724 0 0 1-.156.074l-.01.002-.009.003a.146.146 0 0 1-.022.007.944.944 0 0 1-.083-.084l-.05-.062c-.154-.19-.346-.426-.651-.548a1.692 1.692 0 0 0-.472-.106 7.243 7.243 0 0 0-.152-.013 2.835 2.835 0 0 1-.232-.025l-.07-.012-.017-.002a.55.55 0 0 1-.055-.011.76.76 0 0 1-.028-.082l-.01-.037c-.015-.052-.035-.124-.058-.18l-.005-.014-.008-.012c-.107-.193-.268-.323-.473-.352a.79.79 0 0 0-.517.126c-.022.011-.041.013-.082-.002-.05-.017-.1-.047-.175-.093a8.38 8.38 0 0 0-.05-.03c-.194-.117-.41-.21-.605-.293l-.003-.002a7.266 7.266 0 0 0-1.15-.443l-.02-.006c-.125-.04-.307-.1-.485-.112-.196-.014-.437.025-.609.239a.356.356 0 0 0-.05.076.655.655 0 0 0-.04.103 4.041 4.041 0 0 1-.117-.067l-.009-.005a2.075 2.075 0 0 0-.097-.056 3.96 3.96 0 0 1-.767-.641 2.72 2.72 0 0 1-.316-.478c-.095-.164-.202-.35-.344-.523-.326-.424-.797-.462-1.194-.44l-.012.002c-.45.045-.9.16-1.326.342a4.708 4.708 0 0 0-.58.312l-.019.01a2.378 2.378 0 0 1-.107.05.45.45 0 0 0-.084-.147.491.491 0 0 0-.28-.16.566.566 0 0 0-.488.134l-.115-.032v.011a1.186 1.186 0 0 1-.152-.094c-.192-.144-.428-.32-.722-.398l-.009-.002a1.016 1.016 0 0 0-.507.02c-.064.017-.126.038-.18.057l-.01.004c-.058.02-.108.037-.16.05a.657.657 0 0 1-.535-.094l-.004-.003a.635.635 0 0 1-.27-.417.688.688 0 0 1 .018-.267l.017-.075c.021-.087.048-.197.057-.302v-.001c.03-.318-.08-.591-.18-.815l-.041-.093c-.087-.195-.159-.353-.182-.53a.454.454 0 0 0-.238-.35.513.513 0 0 0-.362-.037c-.213.054-.456.26-.41.585v.002c.027.187.096.354.163.498.026.056.05.106.074.153.042.085.08.162.113.247l.004.009c.041.091.044.178.027.29-.01.057-.023.116-.04.186l-.002.008a2.885 2.885 0 0 0-.048.24l-.002.01v.008a1.614 1.614 0 0 0 1.03 1.611c.316.127.652.15.978.102.11-.016.214-.059.285-.088l.01-.004a.99.99 0 0 1 .156-.056c.067.005.12.04.233.113l.058.038c.224.158.518.323.825.369.097.014.197.017.299.003.112.089.241.15.368.181.246.06.47.012.657-.066.166-.068.32-.167.441-.246l.034-.022a2.983 2.983 0 0 1 1.225-.425c.069-.01.128-.017.19-.019a.297.297 0 0 1 .144.02l.012.007c.025.012.054.038.094.106.02.033.038.07.059.115l.012.026.057.117.005.01c.38.663.925 1.212 1.588 1.6.125.077.299.177.49.236a.9.9 0 0 0 .665-.03.674.674 0 0 0 .32-.366l.027.01.089.039.002.001c.032.014.068.03.102.043l.006.002c.416.148.81.317 1.207.508.066.032.135.072.218.12l.008.004c.083.048.177.102.276.149.195.092.442.174.713.112l.011-.002.008-.003c.033.066.071.125.11.174l.004.006c.247.297.604.369.889.392h.001l.06.004c.289.021.456.033.591.164.038.037.074.08.116.132l.032.042c.032.04.068.087.104.129.101.12.239.251.448.316.251.088.46.046.634-.02.045-.017.092-.038.136-.057a1.415 1.415 0 0 0-.023.472l.002.01.024.15c.062.378.097.59-.106.841l-.003.004a.783.783 0 0 1-.394.26l-.008.003c-.051.019-.09.03-.133.042-.034.01-.072.02-.122.037a.946.946 0 0 0-.304.152.854.854 0 0 0-.342.556.713.713 0 0 0 .238.65l.01.008a.838.838 0 0 0 .087.061.972.972 0 0 0-.198.198c-.246.324-.274.703-.23 1.037l-.157.151.196.063.013.059.001.003a.47.47 0 0 0 .352.34c.087.021.183.02.274-.008.004.035.004.076.004.134v.008c0 .063 0 .149.014.232l.002.024c.02.172.05.446.224.653.011.016.021.027.028.035l-.001.002-.011.01-.01.012c-.193.24-.25.546-.29.764l-.008.038-.002.011v.012c-.023.24-.044.448-.1.633-.04.102-.081.137-.117.156-.049.025-.127.042-.273.042l-.33-.002c-.554-.003-1.117-.006-1.694.068l-.023.003-.022.007a.528.528 0 0 0-.35.333.353.353 0 0 0 .037.296.365.365 0 0 0 .267.16c.461.066.898.088 1.354.088.086 0 .18.005.284.01l.035.003c.092.005.19.011.29.014.22.005.47-.005.702-.084l.007-.002c.449-.168.634-.506.722-.846.043-.164.065-.334.084-.486l.002-.017c.018-.147.034-.276.061-.392a.491.491 0 0 1 .069-.119c.026-.036.051-.066.08-.101l.062-.077c.1-.128.242-.324.224-.588l-.001-.007-.001-.008a.619.619 0 0 0-.132-.319 1 1 0 0 0-.185-.168.128.128 0 0 1-.046-.064.5.5 0 0 1-.015-.15v-.032c0-.297.001-.785-.416-1.077a.866.866 0 0 0-.253-.132l.003-.006v-.003a.21.21 0 0 1 .035-.065.066.066 0 0 1 .024-.018.73.73 0 0 1 .218-.036Zm0 0h-.004l-.015-.25m.019.25h.003l-.022-.25m0 0c-.246.022-.403.044-.492.28l1.085-.424c-.168.1-.391.132-.593.144Zm-.17-1.027.002-.001h-.002Z"/><path fill="#fff" stroke="#fff" stroke-width=".5" d="m45.472 8.887.006-.008.004-.009c.106-.205.174-.44.111-.71l-.001-.007a.968.968 0 0 0-.18-.35.744.744 0 0 0-.216-.183 2.696 2.696 0 0 1-.029-.019 1.188 1.188 0 0 1-.005-.069.758.758 0 0 0-.22-.468c-.227-.217-.533-.267-.78-.241a1.722 1.722 0 0 0-.403.093l-.102.035c-.077.027-.147.052-.226.072-.035.008-.08.002-.179-.056l-.085-.053a3.843 3.843 0 0 0-.083-.052 1.187 1.187 0 0 0-.226-.112c-.312-.11-.641-.12-.955-.09a3.66 3.66 0 0 0-.198-1.401c.139-.064.274-.14.396-.232.29-.218.514-.537.5-.985l-.001-.011c-.032-.392-.285-.644-.535-.814h-.001c-.274-.183-.456-.347-.585-.613l-.002-.003a6.462 6.462 0 0 1-.17-.383l-.012-.03a6.23 6.23 0 0 0-.208-.46c-.16-.306-.38-.615-.744-.81a1.4 1.4 0 0 0-.948-.139c-.116.024-.23.064-.335.121a1.26 1.26 0 0 0-.41-.122 1.898 1.898 0 0 0-.965.151c-.097.041-.193.09-.28.135l-.004.002a3.97 3.97 0 0 1-.257.124c-.165.07-.298.097-.426.07l-.006-.002c-.115-.022-.222-.061-.349-.108a13.24 13.24 0 0 0-.094-.035 1.653 1.653 0 0 0-.566-.12.952.952 0 0 0-.61.2c-.152.12-.256.278-.337.419-.038.065-.068.122-.097.175a3.157 3.157 0 0 1-.127.222.75.75 0 0 1-.231.248.786.786 0 0 1-.656.07 5.663 5.663 0 0 1-.215-.097h-.001a5.701 5.701 0 0 0-.233-.104 1.743 1.743 0 0 0-.567-.14h-.015c-.349 0-.694.12-.975.219l-.091.032-.006.002-.118.045a2.442 2.442 0 0 1-.322.107c-.133.032-.225.026-.294-.008a.503.503 0 0 0-.323-.063.612.612 0 0 0-.285.128c-1.108.86-1.478 2.233-1.572 3.482a2.3 2.3 0 0 0-.037-.056l-.003-.006c-.425-.602-1.169-.989-1.96-.625a1.92 1.92 0 0 0-.207.103c-.037.019-.064.032-.084.04a.578.578 0 0 1-.03-.018l-.017-.012c-.043-.03-.122-.085-.213-.117-.33-.136-.633.023-.822.205a.466.466 0 0 0-.044.05 1.774 1.774 0 0 0-.038-.124l-.004-.01c-.265-.683-1.085-.867-1.666-.638-.31.12-.535.329-.709.553a1.206 1.206 0 0 0-.678-.346 1.126 1.126 0 0 0-.982.302.488.488 0 0 0-.151.391c.01.135.075.252.16.336.168.167.48.252.736.026l.008-.007c.006-.007.028-.02.066-.017a.107.107 0 0 1 .062.02c.026.035.035.075.058.18l.009.041c.027.123.078.317.275.45.375.254.783.047.983-.201l.01-.01.006-.013a2.474 2.474 0 0 0 .163-.302c.026-.052.048-.098.074-.145a.718.718 0 0 1 .229-.278l.008-.005a.387.387 0 0 1 .205-.063c.075-.002.124.019.153.046.03.042.05.106.071.227l.008.042c.017.108.043.262.112.394l.004.008.005.008a.805.805 0 0 0 .363.331.723.723 0 0 0 .438.04c.264-.055.501-.233.667-.415a.64.64 0 0 0 .02-.022c.373.208.76.052 1-.044l.011-.005h.003c.16-.067.266-.105.357-.112a.342.342 0 0 1 .249.081l.007.005c.237.164.374.457.46.785l.001.007c.022.077.038.17.058.287l.002.012c.019.116.042.252.08.382.079.264.239.56.62.657.2.052.388.03.543-.075a.76.76 0 0 0 .275-.382c.095-.265.099-.587.099-.756 0-.705.006-1.471.164-2.174.14-.623.396-1.176.855-1.584.327.066.627.002.898-.086.103-.034.216-.076.324-.117a10.7 10.7 0 0 1 .192-.071c.165-.058.32-.104.477-.122.135-.014.267.036.458.127l.058.029c.166.081.38.186.617.21.444.05.88-.076 1.233-.295l.006-.004c.378-.25.531-.574.678-.884l.058-.12.001-.004c.032-.067.057-.075.065-.077.02-.006.062-.01.146.013.082.021.171.058.28.102l.003.002c.102.042.225.092.344.119.567.13 1.045-.11 1.44-.321.148-.065.327-.14.487-.164a.762.762 0 0 1 .046-.005h.082c.066.007.093.035.109.064l.004.008c.098.164.276.239.431.243a.485.485 0 0 0 .454-.256l-.115-.06.115.06a.148.148 0 0 1 .049-.06h.088l-.01-.018c.019 0 .04.001.065.006a.706.706 0 0 1 .342.192c.125.138.212.314.3.526l.06.153c.065.166.137.349.227.515.106.226.26.42.43.585l.007.007.008.006c.085.07.18.13.258.177l.023.015a1.2 1.2 0 0 1 .197.14l.006.006.006.006c.013.01.016.018.017.02a.048.048 0 0 1 0 .023.24.24 0 0 1-.074.125.692.692 0 0 1-.282.15l-.063-.118-.054.154a7.68 7.68 0 0 1-.205.054.483.483 0 0 0-.345.309.525.525 0 0 0 .027.414 2.9 2.9 0 0 1 .125.288l-.051.149.093-.028c.134.416.164.845.1 1.28l-.174.038.144.14-.012.058c-.08.352.24.722.624.598l.048-.01.009-.002.143.138.047-.178c.309-.063.578-.098.831-.02.056.025.111.057.183.1l.005.003c.07.041.155.092.25.131l.011.004c.231.084.454.08.652.057l.015-.002.014-.003c.105-.026.202-.063.283-.094l.006-.003a1.845 1.845 0 0 1 .238-.078.83.83 0 0 0 .31.536l.007.006.007.005c.039.027.085.053.118.073a1.879 1.879 0 0 1 .069.041c-.13.243-.062.5.128.633a.44.44 0 0 0 .321.075.434.434 0 0 0 .3-.205Zm-16.081-1.75c0-1.282.018-2.87.995-3.842l-2.182 3.647c.027.092.044.198.063.309.06.357.126.758.52.857.581.15.604-.626.604-.971Zm1.558-3.98c.285-.004.557-.106.833-.21.24-.09.482-.183.742-.213.235-.024.443.078.653.18l-2.228.242Zm-2.14 4.52c0 .002 0 .002 0 0-.003 0-.003-.002 0-.004l.002-.002-.001.005Z"/><path fill="#fff" stroke="#fff" stroke-width=".5" d="M22.074 5.451c-.025-.262-.245-.391-.415-.428a.724.724 0 0 0-.249-.314.732.732 0 0 0-.565-.128l-.012.002-.012.003a1.037 1.037 0 0 0-.285.142 7.756 7.756 0 0 0-.078.052c-.053.036-.1.067-.148.095l-.009.005-.074.02c-.12-.171-.333-.212-.479-.197-.139.014-.333.095-.406.288-.301-.162-.625-.146-.906-.11h-.003c-.152.022-.214.004-.238-.014l-.153.198.153-.198a.463.463 0 0 1-.088-.107l-.025-.037c-.03-.046-.07-.107-.111-.158-.261-.348-.624-.463-.927-.559a16.573 16.573 0 0 1-.067-.02l-.006-.003a23.453 23.453 0 0 0-5.068-.873H11.9a32.633 32.633 0 0 0-2.526-.043H9.37c-.62.022-1.321.133-1.891.49a1.946 1.946 0 0 0-.76.879l-.027.06a3.782 3.782 0 0 1-.057.127.815.815 0 0 1-.077.135.159.159 0 0 1-.03.034h-.003a.341.341 0 0 1-.049-.024 2.016 2.016 0 0 1-.037-.022l-.004-.002-.042-.025-.008-.005-.008-.004a1.299 1.299 0 0 0-.557-.133h-.01l-.01.001c-.364.03-.66.261-.806.544-.19.365-.208.784-.163 1.17.045.387.157.768.26 1.075l.001.004A5.292 5.292 0 0 0 6.12 9.11a.887.887 0 0 0-.078.358c0 .262.107.477.194.643l.032.059c.08.15.137.258.159.38l.002.01c.034.146.008.268-.054.338a.14.14 0 0 1-.094.053.858.858 0 0 1-.1.007h-.014a2.112 2.112 0 0 0-.134.008 1.03 1.03 0 0 0-.69.285c-.114.101-.225.233-.32.346a5.773 5.773 0 0 1-.104.122v.001c-.315.357-.628.719-.941 1.08h-.001c-.313.362-.626.723-.939 1.078l-.002.003c-.09.105-.19.217-.296.334-.178.197-.367.407-.53.616-.27.343-.514.733-.615 1.184-.167.693-.016 1.376.221 2.002-.039 0-.08.003-.124.009l-.01.001-.011.003c-.288.065-.46.27-.568.46a2.431 2.431 0 0 0-.134.283l-.038.095c-.02.053-.04.1-.06.145-.099.223-.204.44-.31.663v.001c-.106.22-.213.442-.315.67a4.961 4.961 0 0 1-.131.247 4.64 4.64 0 0 0-.155.303c-.095.21-.183.472-.136.742.049.286.255.503.436.658.095.08.195.155.286.221.012.01.025.018.037.027.078.057.145.105.202.152l.002.002c.189.15.377.305.568.461v.001a78.364 78.364 0 0 0 .608.494c.251.202.615.496 1.069.522.409.026.817-.133 1.054-.503l.004-.007.003-.006a.48.48 0 0 0 .034-.409.533.533 0 0 0-.233-.27.526.526 0 0 0-.352-.066.472.472 0 0 0-.333.242l-.004.007a.106.106 0 0 1-.017.026c-.003.003-.004.003-.005.003 0 0-.012.006-.047.001-.08-.01-.199-.065-.348-.164a4.308 4.308 0 0 1-.418-.326c-.047-.04-.093-.08-.137-.12-.069-.06-.13-.115-.171-.147l-.425-.345c-.14-.113-.28-.226-.424-.345H1.21a2.71 2.71 0 0 0-.23-.164.505.505 0 0 1-.124-.108l-.204.142.204-.142c-.002-.002-.012-.01.01-.072.013-.034.03-.07.055-.119l.006-.012c.02-.038.044-.087.064-.135.203-.405.397-.812.593-1.223l.32-.667c.017-.032.033-.072.045-.102l.001-.003v-.002l.023-.055.032.018a.61.61 0 0 0 .037.02l.01.005.009.003c.093.037.19.067.293.081l.178.371.064-.37a.963.963 0 0 0 .29-.09c.306-.148.308-.5.205-.703-.212-.44-.41-.897-.487-1.35-.076-.446-.033-.874.226-1.272.216-.33.494-.632.784-.946l.153-.166.004-.004.002-.002c.356-.408.715-.82 1.053-1.231.357-.409.717-.82 1.054-1.234l.004-.005a2.38 2.38 0 0 0 .045-.06l.014-.019a.988.988 0 0 1 .077-.09l.005-.002.02-.008s.018-.005.084 0l.06.006.042.004c.037.003.082.007.127.007h.015l.015-.002c.223-.026.423-.108.595-.246.42-.325.548-.808.497-1.279a1.848 1.848 0 0 0-.276-.783l-.003-.005a2.852 2.852 0 0 1-.063-.12.53.53 0 0 0 .237-.317.512.512 0 0 0-.127-.505 4.963 4.963 0 0 1-.145-.146l.041-.14-.141.032a3.881 3.881 0 0 1-.747-1.188l-.002-.004c-.098-.243-.199-.52-.262-.798-.063-.28-.084-.542-.038-.762l.001-.005a.68.68 0 0 1 .02-.082.395.395 0 0 1 .04.017c.227.1.561.247.928.1.325-.128.501-.37.626-.592.036-.063.074-.137.109-.204l.057-.11c.052-.097.102-.178.158-.244l.003-.004c.118-.146.295-.255.517-.335.22-.08.466-.125.705-.156a15.206 15.206 0 0 1 1.955-.042h.001c1.483.042 2.967.235 4.43.555h.002c.404.087.799.172 1.17.277h.002a2.686 2.686 0 0 0 .154.037l.106.025c.081.02.132.039.163.059.062.04.093.086.155.179l.066.098.006.008c.204.27.485.5.892.53a1.535 1.535 0 0 0 .376-.008c.07-.007.127-.012.185-.012h-.003s.01 0 .03.004a.486.486 0 0 0 .164.364.535.535 0 0 0 .55.099l.056.054.063-.11c.175-.096.315-.221.424-.366.07.013.142.02.216.02.206 0 .39-.097.505-.163a.79.79 0 0 0 .104-.074l.008.014.014.018a.859.859 0 0 0 .376.274l.01.004.01.003c.175.05.359.03.507-.07.15-.099.241-.262.259-.449l.002-.023-.002-.024Z"/><mask id="a" width="4" height="4" x="1.538" y="21.171" fill="#000" maskUnits="userSpaceOnUse"><path fill="#fff" d="M1.538 21.171h4v4h-4z"/><path d="M3.672 23.43c0-.022-.022-.022-.044-.022.022.022.067.022.09.022h.022c-.045 0-.09-.022-.112-.022.022.022.044.043.067.043h.134c.022 0 .022 0 .045-.021-.023 0-.023 0-.045.021h.022c.023 0 .023 0 .045-.021.023 0 .023-.022.045-.043.022-.022.045-.065.022-.087 0-.021 0-.043-.022-.064 0-.022-.022-.022-.045-.044-.022-.021-.022-.021-.045-.021h-.067c-.044 0-.067 0-.09.021 0 0-.022 0-.022.022-.022 0-.022.022-.044.022a.162.162 0 0 0-.045.107c.022-.021.022-.064.045-.086l-.045.043c-.023.022-.023.065-.023.087v-.065c-.022.021-.022.043-.022.065 0 .021 0 .064.022.086h.045c.023-.022.045-.022.067-.043Z"/></mask><path fill="#fff" d="M3.672 23.43c0-.022-.022-.022-.044-.022.022.022.067.022.09.022h.022c-.045 0-.09-.022-.112-.022.022.022.044.043.067.043h.134c.022 0 .022 0 .045-.021-.023 0-.023 0-.045.021h.022c.023 0 .023 0 .045-.021.023 0 .023-.022.045-.043.022-.022.045-.065.022-.087 0-.021 0-.043-.022-.064 0-.022-.022-.022-.045-.044-.022-.021-.022-.021-.045-.021h-.067c-.044 0-.067 0-.09.021 0 0-.022 0-.022.022-.022 0-.022.022-.044.022a.162.162 0 0 0-.045.107c.022-.021.022-.064.045-.086l-.045.043c-.023.022-.023.065-.023.087v-.065c-.022.021-.022.043-.022.065 0 .021 0 .064.022.086h.045c.023-.022.045-.022.067-.043Z"/><path fill="#fff" d="M3.672 23.68a.279.279 0 0 0 .18-.067l.016-.014-.007.006a.217.217 0 0 1-.144.053v-.5a.275.275 0 0 0-.196.081l.007-.006a.218.218 0 0 1 .087-.045.219.219 0 0 1 .057-.008v.5Zm0-.25.347.36.153-.148v-.212h-.5Zm-.044-.022v-.5h-1.24l.893.86.347-.36Zm.246.022.347.36.892-.86h-1.24v.5Zm.022 0v-.5h-.202l-.145.14.347.36Zm.067-.13h-.5v.213l.153.147.347-.36Zm-.022-.064h-.5v.212l.153.148.347-.36Zm-.246-.044v.5h.202l.145-.14-.347-.36Zm-.023.022v.5h.5v-.5h-.5Zm-.044.022v-.5h-.202l-.145.14.347.36Zm-.045.107h-.5v1.177l.847-.817-.347-.36Zm-.023-.021h.5v-1.177l-.847.817.347.36Zm0 .151-.347.36.146.14h.201v-.5Zm.045 0v.5h.202l.145-.14-.347-.36Zm.567-.043a.519.519 0 0 0-.496-.52l-.048-.002v1h-.016a.48.48 0 0 1-.44-.478h1Zm-.891.338a.58.58 0 0 0 .312.153c.061.01.116.009.124.009v-1c-.014 0 .007-.001.035.003a.44.44 0 0 1 .223.115l-.694.72Zm.436.162h.023v-1h-.023v1Zm.023-1c.028 0 .048.003.058.005l.01.002-.012-.003-.026-.007a.622.622 0 0 0-.142-.019v1a.446.446 0 0 1-.075-.006l-.027-.005c-.003-.001-.004-.002 0 0l.016.004a.836.836 0 0 0 .198.029v-1Zm-.46.838c.005.005.043.042.088.075.041.03.158.108.327.108v-1c.146 0 .24.068.26.082.022.016.037.032.02.015l-.694.72Zm.415.183H3.74v-1H3.694v1Zm.045 0h.022v-1H3.74v1Zm.022 0H3.807v-1H3.761v1Zm.045 0h.022v-1h-.022v1Zm.022 0h.017a.547.547 0 0 0 .223-.052.54.54 0 0 0 .12-.079l.032-.03-.694-.72.006-.005a.46.46 0 0 1 .261-.112l.035-.002v1Zm.045-1.021h-.017a.524.524 0 0 0-.342.131l-.033.03.694.72-.006.006a.463.463 0 0 1-.261.11c-.026.003-.05.003-.035.003v-1Zm-.045 1.021h.022v-1H3.83v1Zm.022 0h.018a.547.547 0 0 0 .222-.052.54.54 0 0 0 .12-.079l.032-.03-.694-.72.006-.005a.46.46 0 0 1 .262-.112l.034-.002v1Zm.045-.021a.523.523 0 0 0 .434-.23c.043-.062-.005.011-.042.047l-.694-.72a.596.596 0 0 0-.092.113l.005-.008c.008-.011.048-.07.123-.12a.477.477 0 0 1 .266-.082v1Zm.392-.183a.617.617 0 0 0 .154-.24.539.539 0 0 0-.132-.567l-.694.72a.462.462 0 0 1-.12-.48.384.384 0 0 1 .098-.153l.694.72Zm.175-.447s.003-.075-.018-.158a.567.567 0 0 0-.157-.266l-.694.72a.433.433 0 0 1-.117-.203c-.016-.06-.014-.113-.014-.093h1Zm-.022-.064a.52.52 0 0 0-.1-.307c-.058-.08-.125-.124-.144-.136-.063-.04.01.005.046.04l-.694.72c.036.034.07.058.093.073l.022.013-.007-.004c-.01-.007-.07-.045-.124-.118a.48.48 0 0 1-.092-.281h1Zm-.198-.404-.032-.03a.538.538 0 0 0-.342-.131H3.85v1l-.034-.002a.474.474 0 0 1-.262-.111l-.006-.006.694-.72Zm-.392-.161H3.784v1H3.852v-1Zm-.067 0c-.003 0-.245-.023-.436.162l.694.72a.428.428 0 0 1-.216.112c-.028.005-.048.006-.052.006h.01v-1Zm-.09.521v-.5h-.016a.483.483 0 0 0-.066.007.529.529 0 0 0-.347.218.521.521 0 0 0-.093.297h1a.48.48 0 0 1-.444.477l-.017.001h-.015l-.001-.5Zm-.022-.478a.526.526 0 0 0-.361.144l-.008.007.004-.003.015-.014a.464.464 0 0 1 .306-.112v1a.526.526 0 0 0 .361-.144l.008-.007-.003.003-.016.014a.464.464 0 0 1-.306.112v-1Zm-.391.162a.66.66 0 0 0-.198.467h1a.346.346 0 0 1-.108.253l-.694-.72Zm.649.827a.565.565 0 0 0 .14-.215l.008-.024c.002-.005 0-.003 0 0a.437.437 0 0 1-.103.153l-.694-.72a.563.563 0 0 0-.148.24c-.002.005-.001.003 0 0a.435.435 0 0 1 .103-.153l.694.72Zm-.65-.806-.022.022-.022.021.694.72.022-.021.023-.022-.694-.72Zm-.044.043a.576.576 0 0 0-.165.318c-.011.064-.01.12-.01.129h1c0-.014 0 .01-.005.042a.441.441 0 0 1-.126.232l-.694-.72Zm.824.447V23.321h-1V23.387h1Zm-.847-.425a.567.567 0 0 0-.156.267c-.021.082-.019.157-.019.158h1c0-.02.003.032-.013.093a.433.433 0 0 1-.117.202l-.695-.72Zm-.175.425c0 .008 0 .064.01.128.01.054.04.197.165.318l.695-.72a.442.442 0 0 1 .126.232c.005.031.004.056.004.042h-1Zm.522.586H3.606v-1H3.56v1Zm.392-.14c-.052.05-.108.074-.096.069.01-.005.089-.04.163-.112l-.694-.72c.053-.05.108-.075.097-.069-.011.005-.089.04-.164.112l.694.72Z" mask="url(#a)"/><path fill="#fff" stroke="#fff" stroke-width=".5" d="m4.071 23.837.005.004.023.018c.12.098.308.249.531.307a.92.92 0 0 0 .712-.054 2.706 2.706 0 0 0 .113-.051.649.649 0 0 1 .074-.03.098.098 0 0 1 .073.001l.013.004c.11.033.198.076.302.127.046.023.095.047.15.072.168.076.366.148.613.136.072-.002.14-.018.178-.027l.007-.002a.393.393 0 0 1 .076-.014c.024 0 .038.004.065.019a.926.926 0 0 1 .046.027l.024.016c.03.019.069.042.114.064l.007.003.007.003c.194.08.395.109.6.081.087-.012.175-.034.247-.052l.015-.004c.081-.02.144-.034.2-.04a.249.249 0 0 1 .107.006c.017.005.04.017.068.056l.001.002c.058.076.102.15.153.236l.063.105c.077.125.171.264.312.387.352.31.834.33 1.213.176.22-.073.414-.207.556-.306a5.456 5.456 0 0 1 .084-.057c.134-.088.339-.223.428-.48a.412.412 0 0 0-.085-.418.476.476 0 0 0-.34-.152.74.74 0 0 0-.426.1c-.106.059-.203.138-.282.202l-.016.013c-.186.15-.288.215-.408.204H9.69c-.046-.003-.093-.027-.159-.122a1.638 1.638 0 0 1-.097-.167l-.015-.029c-.028-.053-.06-.115-.094-.17l-.003-.005c-.176-.267-.432-.527-.846-.585a1.188 1.188 0 0 0-.313.006 4.048 4.048 0 0 0-.133.02l-.011.001-.104.017-.013.002-.076.015-.071.014a.482.482 0 0 1-.083.01c-.025 0-.058-.004-.125-.047l-.006-.004a1.18 1.18 0 0 0-.319-.141 1.054 1.054 0 0 0-.371-.023h-.003c-.061.006-.11.013-.152.019-.12.016-.177.024-.273-.005a2.62 2.62 0 0 1-.198-.098l-.021-.01c-.067-.036-.141-.075-.218-.11a1.055 1.055 0 0 0-.628-.096.905.905 0 0 0-.306.117l-.014.008c-.069.038-.107.06-.144.072-.034.004-.08-.005-.155-.04a1.924 1.924 0 0 1-.13-.072l-.006-.004c-.044-.026-.097-.056-.149-.081a1.403 1.403 0 0 0-.536-.154.632.632 0 0 0-.593.316l-.004.006-.003.007a.321.321 0 0 0 .29.473c.178 0 .324.06.464.178Z"/><path fill="#fff" stroke="#fff" stroke-width=".5" d="m10.893 24.774.018-.005.016-.006c.37-.147.681-.246 1.075-.286h.002a10.02 10.02 0 0 1 .55-.045c.186-.014.38-.03.583-.065.662-.11 1.423-.364 1.771-1.063l.005-.01c.02-.043.036-.086.051-.124v-.002l.044-.106a.386.386 0 0 1 .074-.121l.007-.007.006-.007h.001c.005-.006.013-.016.068-.019a1.25 1.25 0 0 1 .119 0c.042 0 .097 0 .155-.005.197-.003.396-.058.568-.17v.001l.007-.005a1.059 1.059 0 0 0 .246-.255.432.432 0 0 1 .113-.12.526.526 0 0 1 .176-.05 2.31 2.31 0 0 1 .138-.015l.13-.013c.24-.024.455-.07.687-.137.093-.023.18-.048.265-.07.332-.092.61-.168.922-.138h.007c.436.029.827.201 1.222.433.169.1.334.207.503.317l.088.057c.198.129.403.26.615.373l.01.005c.205.099.415.023.526-.124a.404.404 0 0 0-.037-.535c-.587-.632-1.432-1.177-2.312-1.384a3.114 3.114 0 0 0-1.31-.07l-.003.001c-.205.036-.402.09-.585.14-.05.014-.097.028-.144.04-.228.06-.442.109-.67.119h-.003a1.489 1.489 0 0 0-.619.148c-.18.092-.327.225-.471.387-.055.059-.086.067-.116.073a.743.743 0 0 1-.103.009h-.025a3.07 3.07 0 0 0-.142.008.966.966 0 0 0-.612.203c-.195.147-.3.346-.378.502l-.025.05c-.073.146-.125.251-.207.337l-.007.008c-.187.213-.47.309-.827.395-.18.034-.38.052-.6.07l-.044.004c-.207.017-.429.035-.646.07-.46.072-.947.225-1.285.648a.316.316 0 0 0 .048.48.448.448 0 0 0 .355.079ZM60.49 19.529l-.01.03-.002.031-.068.865v.019c0 .052-.005.112-.01.185l-.001.004a2.79 2.79 0 0 0-.012.22c0 .02-.002.044-.005.08v.003a1.435 1.435 0 0 0-.006.12c0 .092.015.227.114.346l.008.01.01.01c.07.067.155.086.219.086s.149-.02.218-.086a.515.515 0 0 0 .143-.338c.005-.062.003-.14.001-.19V19.634a.277.277 0 0 0-.074-.233.296.296 0 0 0-.216-.09.327.327 0 0 0-.309.217Z"/><path fill="#fff" stroke="#fff" stroke-width=".5" d="M60.768 19.658a7.39 7.39 0 0 0-.005.046c-.02.193-.04.386-.04.597 0 .039-.004.08-.01.132l-.001.011a1.476 1.476 0 0 0-.012.16l-.001.051v.019a1.073 1.073 0 0 0-.001.102c.004.079.023.184.1.283l.01.014.014.012a.361.361 0 0 0 .249.103c.089 0 .2-.039.267-.144a.497.497 0 0 0 .089-.268 1.07 1.07 0 0 0 0-.102l-.001-.019-.002-.052V20.3c0-.115-.006-.223-.011-.324v-.003c-.006-.103-.011-.199-.011-.299a.312.312 0 0 0-.317-.315.31.31 0 0 0-.317.297ZM41.43 4.662c-.023.277-.046.565-.046.856 0 .053-.005.113-.01.185v.005a2.789 2.789 0 0 0-.012.22V6.144l-.002.027v.003a.717.717 0 0 0-.004.065c0 .05.008.134.064.212a.27.27 0 0 0 .236.132.271.271 0 0 0 .232-.125.375.375 0 0 0 .074-.152c.012-.053.012-.107.011-.134V5.95c0-.053.005-.113.01-.186l.001-.004c.005-.064.011-.139.012-.21.022-.288.022-.573.022-.869v-.065l-.028-.055a.31.31 0 0 0-.275-.167.29.29 0 0 0-.183.064.28.28 0 0 0-.103.204ZM5.482 7.849V7.867c.012.16.023.328.034.495l.034.497v.007l.001.008c.01.077.015.151.021.233v.003c.006.08.012.166.024.26v.005a1.15 1.15 0 0 1 .01.106c.002.032.005.071.01.11.009.083.03.187.092.29a.27.27 0 0 0 .248.155c.04 0 .096-.01.15-.044.05-.032.1-.09.117-.169.054-.199.025-.39.005-.528a3.866 3.866 0 0 1-.023-.245v-.002c-.005-.077-.011-.162-.023-.253-.011-.163-.028-.326-.045-.484v-.002c-.017-.163-.033-.32-.044-.477l-.002-.033-.01-.032a.32.32 0 0 0-.302-.217.298.298 0 0 0-.298.299Z"/><path fill="#fff" stroke="#fff" stroke-width=".5" d="m5.89 8.316-.028.054v.066c0 .274 0 .539.023.825 0 .265.023.559.094.837.015.082.066.141.117.174a.279.279 0 0 0 .301 0c.055-.035.11-.1.12-.19.036-.218.031-.457.027-.659a8.218 8.218 0 0 1-.003-.172v-.02c-.007-.079-.011-.161-.016-.247-.01-.189-.022-.39-.054-.592l-.006-.04-.019-.036a.312.312 0 0 0-.278-.167.312.312 0 0 0-.278.167Z"/></svg>